<svg width="22" height="25" viewBox="0 0 22 25" fill="none" xmlns="http://www.w3.org/2000/svg">
<path fill-rule="evenodd" clip-rule="evenodd" d="M14.8557 3.50005L6.79428 3.5C3.97691 3.5 1.94434 6.06151 1.94434 9.35897V15.641C1.94434 18.9385 3.97691 21.5 6.79428 21.5H14.8482C16.2014 21.4829 17.4823 20.8421 18.4 19.7266C19.3176 18.611 19.792 17.1183 19.7126 15.5959L19.7138 9.35897C19.792 7.88171 19.3176 6.38895 18.4 5.27344C17.4823 4.15794 16.2014 3.51705 14.8557 3.50005ZM6.79428 5.02843L14.8407 5.02838C15.8175 5.04072 16.7472 5.50592 17.4133 6.31562C18.0794 7.12533 18.4237 8.20887 18.3661 9.31389L18.3649 15.641C18.4237 16.7911 18.0794 17.8747 17.4133 18.6844C16.7472 19.4941 15.8175 19.9593 14.8407 19.9716L6.79428 19.9716C4.7557 19.9716 3.29317 18.1284 3.29317 15.641V9.35897C3.29317 6.87155 4.7557 5.02843 6.79428 5.02843ZM16.1879 9.13837C15.9552 8.80886 15.5307 8.75555 15.24 9.0193L11.5961 12.3242L11.4917 12.4068C11.0621 12.7095 10.4979 12.6816 10.0864 12.3181L6.41595 9.01731L6.33334 8.9536C6.04866 8.76727 5.67893 8.84031 5.46843 9.14086C5.23689 9.47146 5.2857 9.95216 5.57746 10.2145L9.25255 13.5195L9.39593 13.6375C10.3204 14.3459 11.5455 14.3067 12.4322 13.5236L16.0828 10.2126L16.1561 10.1355C16.3799 9.86261 16.3995 9.43792 16.1879 9.13837Z" fill="#200E32"/>
</svg>
