<svg width="25" height="25" viewBox="0 0 25 25" fill="none" xmlns="http://www.w3.org/2000/svg">
<path fill-rule="evenodd" clip-rule="evenodd" d="M12.7029 2.5H12.6315C9.26239 2.5 6.17329 4.94456 5.8736 8.18096C5.85361 8.41248 5.83998 8.64906 5.83119 8.90391L5.81887 9.49974L5.81644 10.034L5.83148 9.97306C5.69244 10.651 5.37199 11.2799 4.90328 11.7938L4.83611 11.8802C4.43478 12.4898 4.20419 13.1955 4.1685 13.9242L4.16765 14.1624C4.14716 15.1208 4.47557 16.0691 5.09338 16.8223C5.93119 17.7069 7.01571 18.2346 8.17971 18.3466C11.1567 18.6699 14.1687 18.6699 17.1541 18.3457C18.3101 18.2393 19.3979 17.7101 20.2006 16.8582C20.8067 16.1331 21.1374 15.263 21.1658 14.362L21.1667 13.9587C21.1336 13.198 20.9016 12.4917 20.4954 11.8847L20.4337 11.8055L20.283 11.6282C19.9443 11.2052 19.697 10.718 19.5563 10.1969L19.5118 10.0098L19.5025 9.81353C19.4998 9.72527 19.4984 9.6274 19.498 9.50516L19.4978 8.83206C19.4955 8.57458 19.4879 8.39148 19.4701 8.18536C19.1602 4.94285 16.0702 2.5 12.7029 2.5ZM12.6315 3.89535H12.7029C15.4004 3.89535 17.8611 5.84075 18.0975 8.31326C18.1115 8.47558 18.1177 8.63044 18.1196 8.8605L18.1223 9.76514C18.1253 9.90982 18.1309 10.0301 18.1407 10.1655L18.1536 10.2582L18.2184 10.534C18.4107 11.2635 18.7561 11.9441 19.2315 12.5309L19.3693 12.6926L19.3541 12.6672C19.6178 13.0613 19.768 13.5186 19.789 13.9901L19.7883 14.1536C19.8042 14.8097 19.5867 15.433 19.1751 15.9267C18.6313 16.502 17.8538 16.8802 17.0181 16.9572C14.1195 17.2719 11.206 17.2719 8.31843 16.9583C7.47357 16.877 6.69556 16.4985 6.12044 15.8931C5.74761 15.4356 5.53243 14.8142 5.54594 14.1774L5.5461 13.9587L5.56357 13.7682C5.60564 13.4495 5.71213 13.1265 5.87719 12.8291L5.9609 12.6905C6.57454 12.0004 6.99567 11.1611 7.18115 10.2567L7.19554 10.1149L7.20207 9.19559L7.21812 8.7292C7.22541 8.58207 7.23473 8.44228 7.24642 8.30678C7.47478 5.84087 9.93326 3.89535 12.6315 3.89535ZM5.9609 12.6905C5.94606 12.7072 5.93111 12.7238 5.91604 12.7404L5.96531 12.6833L5.9609 12.6905ZM15.2747 20.1906C14.9781 19.9491 14.5443 19.9967 14.3057 20.2969C14.2023 20.427 14.0825 20.5437 13.9493 20.6443C13.4975 20.9986 12.9337 21.1564 12.3731 21.0896C11.8134 21.023 11.3047 20.7381 10.9595 20.2995C10.7223 19.9981 10.2886 19.9484 9.99092 20.1885C9.69321 20.4286 9.64415 20.8676 9.88134 21.1689C10.4538 21.8962 11.2925 22.3659 12.212 22.4754C13.1308 22.5849 14.0558 22.326 14.7835 21.755C14.9995 21.5922 15.2033 21.3935 15.3797 21.1715C15.6183 20.8713 15.5713 20.4321 15.2747 20.1906Z" fill="#200E32"/>
</svg>
