<svg width="27" height="24" viewBox="0 0 27 24" fill="none" xmlns="http://www.w3.org/2000/svg">
<ellipse cx="12.5893" cy="7.27803" rx="5.1762" ry="4.77803" stroke="white" stroke-width="1.5" stroke-linecap="round" stroke-linejoin="round"/>
<path fill-rule="evenodd" clip-rule="evenodd" d="M4.37892 18.7014C4.37753 18.3655 4.45891 18.0337 4.61691 17.7311C5.11271 16.8158 6.51088 16.3307 7.67107 16.111C8.50779 15.9462 9.35607 15.836 10.2096 15.7815C11.7898 15.6533 13.3792 15.6533 14.9594 15.7815C15.8128 15.8367 16.6611 15.9468 17.4979 16.111C18.6581 16.3307 20.0563 16.77 20.5521 17.7311C20.8698 18.3479 20.8698 19.064 20.5521 19.6808C20.0563 20.6419 18.6581 21.0812 17.4979 21.2918C16.6622 21.4634 15.8136 21.5766 14.9594 21.6304C13.6732 21.7311 12.381 21.7494 11.0921 21.6854C10.7946 21.6854 10.5071 21.6854 10.2096 21.6304C9.35859 21.5773 8.51325 21.4641 7.68098 21.2918C6.51088 21.0812 5.12263 20.6419 4.61691 19.6808C4.45972 19.3747 4.37842 19.0401 4.37892 18.7014Z" stroke="white" stroke-width="1.5" stroke-linecap="round" stroke-linejoin="round"/>
</svg>
